#!OML:ASF H:\ManfredETheater\Project 1\Capture day 1\Session 1\subject.ASF
:FULLY-SPECIFIED
:DEGREES
47
root 0.225245 15.2585 -20.9382 8.23721 6.37095 -1.11379
lowerback 22.0815 -3.34592 5.52382
upperback 2.60089 -2.50628 4.93485
thorax -9.50201 -1.27905 3.04883
lowerneck -20.0657 1.13904 -0.108268
upperneck 9.97829 2.85236 -8.59906
head 6.45172 0.614909 -2.45306
rclavicle 1.98785e-014 -1.59028e-014
rhumerus -54.9782 -1.75055 -64.0912
rradius 87.8477
rwrist -12.1023
rhand -33.3078 6.91391
rfingers 7.12502
rthumb -6.51134 -22.966
lclavicle 1.98785e-014 -1.59028e-014
lhumerus -37.7486 -17.5784 103.593
lradius 113.748
lwrist 15.3417
lhand -26.3459 -10.6429
lfingers 7.12502
lthumb 0.211687 19.3367
rfemur -52.3634 -3.84084 0.90803
rtibia 59.068
rfoot -3.95929 -7.05639
rtoes -44.3935
lfemur -17.0618 -5.41207 -28.0973
ltibia 92.1505
lfoot -20.1042 -0.960535
ltoes -5.11689
48
root 0.276538 15.2556 -20.4967 7.7484 7.10543 -1.86617
lowerback 22.3872 -3.33211 6.10194
upperback 2.74358 -2.29407 5.22055
thorax -9.51964 -1.19118 2.98794
lowerneck -20.0335 0.925369 -0.113816
upperneck 9.85773 2.53876 -8.4911
head 6.39033 0.477776 -2.4514
rclavicle 2.70347e-014 1.43125e-014
rhumerus -52.9623 -1.39308 -64.4176
rradius 87.5841
rwrist -12.014
rhand -33.3805 7.03295
rfingers 7.12502
rthumb -6.58151 -22.8448
lclavicle 2.70347e-014 1.43125e-014
lhumerus -38.1074 -17.289 103.899
lradius 111.966
lwrist 16.5866
lhand -26.3057 -10.6701
lfingers 7.12502
lthumb 0.250478 19.3095
rfemur -50.5522 -4.06071 1.71308
rtibia 60.3971
rfoot -5.71235 -8.23347
rtoes -45.1898
lfemur -19.7537 -5.04486 -26.5354
ltibia 94.8498
lfoot -20.569 -0.693046
ltoes -5.04414
49
root 0.329756 15.2583 -20.059 7.43161 7.94943 -2.40197
lowerback 22.5325 -3.30475 6.45881
upperback 2.82346 -2.1303 5.48291
thorax -9.51196 -1.11905 3.034
lowerneck -20.0164 0.683932 -0.192795
upperneck 9.79933 2.20386 -8.32077
head 6.34913 0.330236 -2.42021
rclavicle -4.92986e-014 -2.54444e-014
rhumerus -50.9309 -0.974375 -64.6899
rradius 87.2776
rwrist -11.6641
rhand -33.3832 7.10604
rfingers 7.12502
rthumb -6.58415 -22.7716
lclavicle -4.92986e-014 -2.54444e-014
lhumerus -38.5043 -17.0665 104.199
lradius 110.254
lwrist 17.5321
lhand -26.1788 -10.7906
lfingers 7.12502
lthumb 0.3731 19.1889
rfemur -48.651 -4.45341 2.29333
rtibia 61.4019
rfoot -7.4979 -9.41489
rtoes -45.9476
lfemur -22.7468 -4.72747 -25.1533
ltibia 97.2421
lfoot -20.9291 -0.443479
ltoes -4.89183
50
root 0.386764 15.2664 -19.6249 7.24843 8.84349 -2.77036
lowerback 22.5789 -3.24564 6.65189
upperback 2.83896 -1.97276 5.72308
thorax -9.51835 -1.04511 3.14731
lowerneck -19.9935 0.415676 -0.332555
upperneck 9.80354 1.84953 -8.12002
head 6.32637 0.171563 -2.37175
rclavicle 3.10104e-014 9.54166e-015
rhumerus -48.973 -0.546768 -64.8904
rradius 87.0052
rwrist -11.0558
rhand -33.3083 7.14178
rfingers 7.12502
rthumb -6.51189 -22.7381
lclavicle 3.10104e-014 9.54166e-015
lhumerus -38.9571 -16.9513 104.503
lradius 108.654
lwrist 17.8876
lhand -25.9338 -10.9735
lfingers 7.12502
lthumb 0.609674 19.0054
rfemur -46.7132 -4.89961 2.69296
rtibia 62.1844
rfoot -9.19093 -10.7165
rtoes -46.6884
lfemur -25.9557 -4.40498 -23.9314
ltibia 99.2941
lfoot -21.2069 -0.22985
ltoes -4.6738
51
root 0.450203 15.2809 -19.1944 7.14325 9.74781 -3.05767
lowerback 22.5957 -3.15678 6.79062
upperback 2.7929 -1.78959 5.94577
thorax -9.57761 -0.95833 3.26593
lowerneck -19.9457 0.125665 -0.511341
upperneck 9.86079 1.47973 -7.91969
head 6.31718 0.00267425 -2.31897
rclavicle -2.54444e-014 -1.27222e-014
rhumerus -47.1706 -0.148212 -65.026
rradius 86.8482
rwrist -10.2707
rhand -33.1718 7.16409
rfingers 7.12502
rthumb -6.38011 -22.7198
lclavicle -2.54444e-014 -1.27222e-014
lhumerus -39.504 -16.966 104.822
lradius 107.24
lwrist 17.4974
lhand -25.5836 -11.2153
lfingers 7.12502
lthumb 0.947912 18.7623
rfemur -44.6889 -5.33224 3.00816
rtibia 62.6903
rfoot -10.7547 -12.0612
rtoes -47.1699
lfemur -29.2704 -4.04517 -22.8031
ltibia 100.937
lfoot -21.4036 -0.0892038
ltoes -4.40417
52
root 0.523698 15.3052 -18.766 7.05224 10.589 -3.35468
lowerback 22.6281 -3.03399 6.98404
upperback 2.70797 -1.54523 6.14844
thorax -9.69222 -0.845939 3.31586
lowerneck -19.8603 -0.180536 -0.70964
upperneck 9.94027 1.09614 -7.73664
head 6.31022 -0.175082 -2.26988
rclavicle 0 -2.38542e-014
rhumerus -45.5664 0.19565 -65.1253
rradius 86.8642
rwrist -9.43337
rhand -33.0183 7.18856
rfingers 7.12502
rthumb -6.23184 -22.6998
lclavicle 0 -2.38542e-014
lhumerus -40.1724 -17.1148 105.159
lradius 106.101
lwrist 16.4123
lhand -25.14 -11.5081
lfingers 7.12502
lthumb 1.37637 18.4672
rfemur -42.5302 -5.66464 3.33002
rtibia 62.8787
rfoot -12.1981 -13.3908
rtoes -47.4685
lfemur -32.5535 -3.58342 -21.6939
ltibia 102.12
lfoot -21.5461 -0.0434071
ltoes -4.12125
53
root 0.609046 15.34 -18.3388 6.94651 11.3283 -3.68999
lowerback 22.6878 -2.88159 7.27342
upperback 2.60088 -1.23617 6.31733
thorax -9.85007 -0.70849 3.25635
lowerneck -19.7308 -0.497254 -0.911361
upperneck 10.0113 0.698406 -7.5645
head 6.29444 -0.35971 -2.22453
rclavicle 1.90833e-014 -5.56597e-014
rhumerus -44.1803 0.48888 -65.2302
rradius 87.081
rwrist -8.67294
rhand -32.8886 7.24062
rfingers 7.12502
rthumb -6.10666 -22.6514
lclavicle 1.90833e-014 -5.56597e-014
lhumerus -40.9894 -17.3656 105.503
lradius 105.323
lwrist 14.8406
lhand -24.6406 -11.8376
lfingers 7.12502
lthumb 1.85872 18.134
rfemur -40.2101 -5.84067 3.67754
rtibia 62.7094
rfoot -13.4674 -14.7174
rtoes -47.6886
lfemur -35.7149 -3.0096 -20.587
ltibia 102.826
lfoot -21.6487 -0.0774281
ltoes -3.92838
54
root 0.706525 15.3848 -17.9115 6.82838 11.9369 -4.04772
lowerback 22.7519 -2.69791 7.63495
upperback 2.49051 -0.871959 6.43809
thorax -10.0147 -0.55034 3.08442
lowerneck -19.5769 -0.814766 -1.10196
upperneck 10.0584 0.293553 -7.39228
head 6.26824 -0.546309 -2.18078
rclavicle 3.18055e-015 1.11319e-014
rhumerus -43.0013 0.760181 -65.3736
rradius 87.499
rwrist -8.08977
rhand -32.7857 7.35583
rfingers 7.12502
rthumb -6.00736 -22.539
lclavicle 3.18055e-015 1.11319e-014
lhumerus -41.9558 -17.6624 105.835
lradius 104.957
lwrist 13.1086
lhand -24.1067 -12.1974
lfingers 7.12502
lthumb 2.37427 17.7691
rfemur -37.7326 -5.84274 4.03443
rtibia 62.1695
rfoot -14.5365 -16.0216
rtoes -47.9044
lfemur -38.7031 -2.33324 -19.5031
ltibia 103.058
lfoot -21.7162 -0.164057
ltoes -3.84871
55
root 0.815207 15.4389 -17.4827 6.70709 12.419 -4.38498
lowerback 22.8016 -2.48527 8.0188
upperback 2.38792 -0.473221 6.49758
thorax -10.1601 -0.379678 2.81778
lowerneck -19.4204 -1.13568 -1.29583
upperneck 10.0829 -0.122774 -7.18254
head 6.23517 -0.734884 -2.12479
rclavicle -5.56597e-015 9.06458e-014
rhumerus -42.0213 1.05003 -65.5682
rradius 88.0986
rwrist -7.73405
rhand -32.7214 7.51456
rfingers 7.12502
rthumb -5.94521 -22.382
lclavicle -5.56597e-015 9.06458e-014
lhumerus -43.0614 -17.9572 106.138
lradius 105.016
lwrist 11.5953
lhand -23.5689 -12.5358
lfingers 7.12502
lthumb 2.89366 17.4244
rfemur -35.112 -5.67282 4.35597
rtibia 61.2766
rfoot -15.3803 -17.2567
rtoes -48.1079
lfemur -41.475 -1.59971 -18.4751
ltibia 102.83
lfoot -21.763 -0.272747
ltoes -3.88887
